<?xml version="1.0" standalone="no"?>
<!DOCTYPE svg PUBLIC "-//W3C//DTD SVG 20010904//EN"
 "http://www.w3.org/TR/2001/REC-SVG-20010904/DTD/svg10.dtd">
<svg version="1.0" xmlns="http://www.w3.org/2000/svg"
 width="512.000000pt" height="512.000000pt" viewBox="0 0 512.000000 512.000000"
 preserveAspectRatio="xMidYMid meet">

<g transform="translate(0.000000,512.000000) scale(0.100000,-0.100000)"
fill="rgb(40, 119, 236)" stroke="none">
<path d="M1695 4209 c-38 -5 -108 -20 -155 -33 -502 -143 -831 -610 -780
-1106 5 -56 10 -106 10 -111 0 -4 -101 -9 -225 -11 -217 -3 -225 -4 -247 -25
-31 -31 -30 -89 1 -114 21 -17 44 -19 270 -19 l247 0 38 -84 c82 -182 94 -196
785 -889 355 -357 664 -661 687 -677 129 -90 319 -91 445 -2 55 39 1097 1075
1244 1237 60 66 129 147 153 180 l44 60 245 5 245 5 24 28 c29 34 31 66 3 101
l-20 26 -211 0 -210 0 6 23 c50 170 50 168 50 352 0 153 -4 192 -22 258 -140
510 -626 845 -1154 796 -191 -18 -366 -87 -526 -209 l-92 -70 -86 65 c-226
173 -496 248 -769 214z m1684 -159 c235 -30 464 -156 611 -337 76 -94 121
-175 162 -293 31 -92 33 -100 33 -255 0 -166 -12 -240 -56 -342 l-18 -43 -569
0 -568 0 -28 303 c-37 408 -41 428 -67 450 -27 22 -71 22 -99 -1 -18 -14 -62
-145 -205 -612 -152 -493 -184 -589 -189 -560 -3 19 -29 224 -56 455 -61 515
-57 492 -83 516 -22 20 -67 25 -96 9 -22 -11 -26 -21 -191 -469 -71 -195 -132
-356 -134 -358 -3 -4 -28 58 -106 264 -36 93 -58 126 -103 151 -28 15 -74 18
-357 22 l-324 5 -9 45 c-5 25 -9 97 -9 160 -1 411 268 755 677 866 93 25 295
30 396 9 171 -34 318 -109 443 -225 110 -102 124 -102 231 0 133 127 310 213
490 239 86 12 129 12 224 1z m-579 -1130 c18 -204 24 -219 113 -292 1 -1 252
-5 557 -8 l555 -5 -670 -673 c-368 -370 -683 -680 -699 -689 -40 -21 -123 -27
-176 -13 -41 10 -102 68 -693 658 -357 356 -668 674 -692 707 -23 33 -57 88
-74 123 l-31 62 277 -2 278 -3 107 -280 c60 -154 116 -286 125 -292 20 -16 67
-17 93 -3 20 11 45 73 185 455 87 236 105 278 105 240 0 -56 120 -996 129
-1013 16 -30 61 -42 98 -27 22 9 35 25 47 57 11 31 297 957 342 1111 3 10 7
17 9 15 2 -2 8 -59 15 -128z"/>
</g>
</svg>
