<?xml version="1.0" standalone="no"?>
<!DOCTYPE svg PUBLIC "-//W3C//DTD SVG 20010904//EN"
 "http://www.w3.org/TR/2001/REC-SVG-20010904/DTD/svg10.dtd">
<svg version="1.0" xmlns="http://www.w3.org/2000/svg"
 width="512.000000pt" height="512.000000pt" viewBox="0 0 512.000000 512.000000"
 preserveAspectRatio="xMidYMid meet">

<g transform="translate(0.000000,512.000000) scale(0.100000,-0.100000)"
fill="rgb(40, 119, 236)" stroke="none">
<path d="M1789 4626 c-150 -42 -266 -164 -299 -316 -8 -40 -11 -209 -8 -625 4
-560 4 -571 27 -645 36 -119 97 -223 182 -314 42 -45 95 -92 118 -106 22 -14
41 -27 41 -30 0 -3 -37 -18 -83 -34 -412 -145 -750 -495 -891 -923 -52 -155
-67 -254 -73 -470 l-6 -203 -54 0 c-44 0 -58 5 -78 25 l-25 24 0 1311 0 1311
25 24 24 25 291 0 291 0 24 25 c33 32 33 78 0 110 l-24 25 -292 0 c-200 0
-305 -4 -333 -12 -58 -17 -138 -100 -154 -158 -10 -35 -12 -346 -10 -1378 l3
-1332 -218 0 -218 0 -24 -25 c-20 -19 -25 -34 -25 -73 0 -160 123 -333 265
-371 57 -15 4533 -15 4590 0 142 38 265 211 265 371 0 39 -5 54 -25 73 l-24
25 -218 0 -218 0 3 775 2 775 -24 25 c-33 33 -79 33 -111 0 l-25 -24 0 -751 0
-751 -25 -24 -24 -25 -374 0 -374 0 -6 213 c-6 232 -20 320 -77 492 -137 411
-489 764 -893 895 -42 14 -77 27 -77 30 0 3 19 16 41 30 23 14 76 61 118 106
85 91 146 195 182 314 23 74 23 86 27 645 3 418 0 585 -8 625 -34 154 -150
275 -304 316 -70 19 -828 18 -897 0z m905 -170 c50 -25 97 -72 122 -122 17
-34 19 -65 22 -266 l3 -228 -600 0 -601 0 0 214 c0 222 4 253 45 314 26 38 86
84 130 100 20 7 167 10 435 9 378 -2 408 -3 444 -21z m146 -1018 c0 -278 -9
-337 -66 -456 -51 -106 -168 -224 -274 -276 -174 -85 -341 -85 -517 0 -106 51
-226 169 -277 274 -56 116 -66 180 -66 458 l0 242 600 0 600 0 0 -242z m-355
-983 c44 -9 102 -24 130 -33 48 -16 51 -19 79 -87 31 -75 79 -258 91 -341 l6
-50 -40 -19 c-49 -22 -124 -99 -145 -149 -38 -91 -28 -195 26 -279 61 -95 188
-150 296 -128 148 30 242 145 242 297 0 51 -6 74 -33 125 -34 67 -107 133
-159 144 -24 6 -27 12 -34 63 -4 31 -20 111 -36 176 -15 65 -26 121 -24 123 3
3 39 -19 82 -48 167 -116 307 -275 402 -458 106 -203 140 -352 149 -638 l6
-193 -1283 0 -1283 0 6 198 c6 204 19 290 67 432 82 246 250 478 456 633 84
63 241 153 250 144 3 -3 -9 -52 -26 -109 -18 -56 -37 -120 -44 -141 -10 -34
-17 -41 -63 -56 -98 -33 -170 -99 -216 -198 -21 -46 -22 -61 -25 -370 l-3
-323 25 -25 c22 -22 34 -25 96 -25 62 0 74 3 95 25 33 32 33 78 0 110 -13 14
-31 25 -40 25 -13 0 -15 30 -15 243 0 214 3 247 19 282 56 122 220 154 320 62
55 -51 61 -81 61 -344 0 -213 -2 -243 -15 -243 -9 0 -27 -11 -40 -25 -33 -32
-33 -78 0 -110 21 -22 33 -25 95 -25 62 0 74 3 96 25 l25 25 -3 323 -3 322
-27 57 c-34 72 -104 143 -174 175 -31 14 -53 30 -51 37 2 6 19 60 37 121 17
60 45 139 62 176 l30 66 76 13 c42 6 84 13 92 15 37 10 293 -5 365 -20z m465
-681 c94 -56 81 -195 -23 -238 -47 -20 -47 -20 -94 0 -103 42 -117 180 -24
237 34 21 105 21 141 1z m2000 -983 c0 -17 -65 -105 -93 -125 l-28 -21 -2267
0 -2267 0 -34 24 c-30 22 -91 104 -91 123 0 4 1076 8 2390 8 1384 0 2390 -4
2390 -9z"/>
<path d="M2185 4335 c-17 -16 -25 -35 -25 -60 0 -33 -2 -35 -35 -35 -46 0 -85
-37 -85 -80 0 -43 39 -80 85 -80 33 0 35 -2 35 -35 0 -46 37 -85 80 -85 43 0
80 39 80 85 0 33 2 35 35 35 46 0 85 37 85 80 0 43 -39 80 -85 80 -33 0 -35 2
-35 35 0 46 -37 85 -80 85 -19 0 -40 -9 -55 -25z"/>
<path d="M3520 4307 c-49 -16 -133 -102 -148 -153 -8 -29 -12 -146 -12 -390 0
-368 -9 -482 -48 -594 -43 -123 -109 -216 -196 -277 -80 -56 -94 -106 -43
-153 20 -20 40 -20 930 -20 685 0 920 3 951 12 55 16 138 99 154 154 17 58 17
1209 0 1266 -6 22 -31 62 -55 88 -75 83 -41 80 -817 79 -466 -1 -692 -5 -716
-12z m1415 -172 l25 -24 0 -591 0 -591 -25 -24 -24 -25 -786 0 -786 0 29 43
c73 106 122 245 141 402 6 50 11 246 11 438 l0 348 25 24 24 25 671 0 671 0
24 -25z"/>
<path d="M3865 3815 c-16 -15 -25 -36 -25 -55 0 -19 9 -40 25 -55 l24 -25 351
0 351 0 24 25 c16 15 25 36 25 55 0 19 -9 40 -25 55 l-24 25 -351 0 -351 0
-24 -25z"/>
<path d="M3865 3335 c-16 -15 -25 -36 -25 -55 0 -19 9 -40 25 -55 l24 -25 271
0 271 0 24 25 c16 15 25 36 25 55 0 19 -9 40 -25 55 l-24 25 -271 0 -271 0
-24 -25z"/>
</g>
</svg>
