<?xml version="1.0" standalone="no"?>
<!DOCTYPE svg PUBLIC "-//W3C//DTD SVG 20010904//EN"
 "http://www.w3.org/TR/2001/REC-SVG-20010904/DTD/svg10.dtd">
<svg version="1.0" xmlns="http://www.w3.org/2000/svg"
 width="512.000000pt" height="512.000000pt" viewBox="0 0 512.000000 512.000000"
 preserveAspectRatio="xMidYMid meet">

<g transform="translate(0.000000,512.000000) scale(0.100000,-0.100000)"
fill="rgb(40, 119, 236)" stroke="none">
<path d="M1772 4540 c-337 -48 -646 -235 -843 -513 -71 -99 -153 -273 -183
-386 -110 -412 -5 -885 306 -1379 32 -51 58 -95 58 -98 0 -2 -54 -4 -120 -4
l-120 0 0 148 c-1 210 -14 253 -96 299 -35 20 -53 23 -162 23 -138 0 -174 -10
-217 -62 -14 -16 -30 -50 -36 -74 l-11 -44 -110 0 c-125 0 -159 -10 -206 -64
l-32 -37 0 -499 0 -499 31 -36 c51 -58 74 -65 202 -65 l115 0 12 -47 c14 -58
73 -119 124 -128 18 -4 87 -5 153 -3 113 3 122 5 156 31 65 50 71 71 75 270
l4 177 376 0 376 0 140 -138 c246 -241 550 -494 864 -720 200 -143 257 -163
359 -124 126 48 685 487 999 783 310 293 536 554 729 844 408 612 502 1195
267 1663 -45 89 -75 112 -122 92 -16 -6 -34 -25 -41 -41 -11 -27 -8 -38 29
-117 103 -219 133 -426 97 -667 -41 -277 -155 -547 -361 -858 -287 -432 -764
-910 -1344 -1346 -206 -155 -306 -221 -336 -221 -68 0 -670 468 -974 759 l-95
90 350 -2 350 -2 5 -185 c5 -174 6 -187 28 -218 42 -58 85 -72 222 -72 79 0
132 5 153 14 44 18 85 69 99 122 l12 44 115 0 c104 0 118 2 157 25 28 16 49
39 63 68 20 42 21 57 21 507 0 450 -1 465 -21 507 -14 29 -35 52 -63 68 -39
23 -53 25 -157 25 l-115 0 -12 44 c-14 53 -55 104 -99 122 -21 9 -74 14 -153
14 -137 0 -180 -14 -222 -72 -22 -31 -23 -43 -26 -216 l-3 -182 -129 0 c-71 0
-136 -3 -145 -6 -26 -10 -45 -63 -34 -93 18 -45 35 -50 177 -51 l132 0 0 -155
0 -155 -835 0 -835 0 0 155 0 155 558 0 c597 1 581 -1 601 51 11 30 -8 83 -34
93 -9 3 -169 6 -355 6 l-339 0 -44 63 c-182 255 -322 562 -378 827 -33 157
-32 388 4 521 35 135 78 232 150 341 331 503 1002 637 1510 301 40 -26 120
-96 178 -155 165 -166 204 -167 359 -9 152 155 287 240 470 299 363 115 734
37 1043 -220 32 -26 67 -48 78 -48 11 0 34 14 51 30 40 41 33 71 -35 133 -256
233 -633 345 -985 293 -273 -40 -505 -158 -702 -356 l-94 -95 -96 96 c-52 52
-125 116 -161 142 -134 94 -302 167 -469 203 -89 18 -319 27 -408 14z m-1058
-2076 c9 -24 7 -1217 -2 -1232 -6 -9 -35 -12 -108 -10 l-99 3 -3 320 c-2 311
-3 320 -24 342 -26 28 -67 30 -99 4 -24 -19 -24 -21 -27 -255 l-3 -237 -102 3
-102 3 0 445 0 445 100 0 100 0 3 -50 c3 -70 10 -93 32 -115 26 -26 60 -25 94
1 l26 20 0 158 c0 87 3 161 7 164 3 4 50 7 104 7 79 0 98 -3 103 -16z m2181
-614 l0 -625 -102 -3 -103 -3 0 631 0 631 103 -3 102 -3 0 -625z m360 0 l0
-445 -100 0 -100 0 -3 435 c-1 239 0 441 3 448 3 9 30 12 102 10 l98 -3 0
-445z"/>
<path d="M2475 3700 c-12 -4 -26 -14 -32 -21 -6 -8 -66 -196 -133 -419 -67
-223 -126 -408 -129 -413 -6 -6 -62 170 -168 526 -24 80 -15 78 -459 75 l-386
-3 -24 -28 c-29 -34 -30 -56 -3 -91 l20 -26 359 0 c333 0 359 -1 364 -17 132
-442 230 -751 243 -765 18 -20 64 -24 92 -8 24 13 24 10 157 450 64 212 119
389 124 393 4 4 17 -29 30 -73 13 -45 32 -92 42 -106 l19 -24 393 0 c381 0
393 1 411 20 25 28 23 76 -4 103 -21 22 -27 22 -366 25 l-344 3 -32 102 c-17
56 -42 139 -56 185 -32 105 -64 135 -118 112z"/>
</g>
</svg>
