<?xml version="1.0" standalone="no"?>
<!DOCTYPE svg PUBLIC "-//W3C//DTD SVG 20010904//EN"
 "http://www.w3.org/TR/2001/REC-SVG-20010904/DTD/svg10.dtd">
<svg version="1.0" xmlns="http://www.w3.org/2000/svg"
 width="512.000000pt" height="513.000000pt" viewBox="0 0 512.000000 513.000000"
 preserveAspectRatio="xMidYMid meet">

<g transform="translate(0.000000,513.000000) scale(0.100000,-0.100000)"
fill="rgb(40, 119, 236)" stroke="none">
<path d="M2415 5119 c-276 -38 -514 -181 -608 -364 -64 -125 -209 -505 -278
-727 -37 -120 -42 -146 -46 -266 -6 -155 7 -274 47 -435 55 -226 147 -431 355
-797 48 -85 88 -160 88 -165 0 -6 -44 -71 -98 -144 -108 -146 -128 -189 -113
-233 23 -66 112 -91 162 -45 29 25 251 325 442 597 156 220 369 546 449 685
92 159 320 627 366 751 23 63 44 114 47 114 2 0 26 -16 52 -35 60 -44 110 -99
146 -161 26 -44 29 -60 32 -155 10 -268 -72 -538 -284 -940 -418 -792 -1026
-1728 -1567 -2412 l-85 -107 -40 72 c-75 140 -312 594 -312 601 0 3 59 82 132
174 72 92 139 182 149 198 59 95 -40 197 -133 137 -24 -15 -334 -408 -360
-456 -6 -10 -8 -35 -5 -55 8 -51 450 -889 487 -923 35 -32 73 -36 111 -10 83
55 508 625 854 1145 87 130 161 237 164 237 3 0 46 -62 96 -138 250 -384 620
-898 815 -1132 84 -100 105 -120 134 -126 76 -14 79 -10 338 481 131 248 237
461 238 475 0 35 -13 54 -245 355 -210 272 -751 993 -774 1030 -11 18 0 41 84
190 210 373 300 574 354 796 58 242 66 475 21 624 -85 278 -203 599 -279 757
-22 46 -59 106 -83 135 -102 122 -271 216 -468 259 -84 18 -296 26 -385 13z
m381 -219 c151 -39 287 -123 343 -213 18 -30 63 -146 126 -328 l23 -67 -91 43
c-336 159 -801 175 -1163 39 -55 -20 -118 -48 -141 -61 -24 -14 -43 -22 -43
-19 0 3 30 88 66 188 42 117 79 200 101 230 73 101 251 186 443 211 71 10 257
-3 336 -23z m16 -655 c94 -16 228 -55 228 -66 0 -40 -141 -364 -254 -584 -86
-168 -206 -375 -218 -375 -15 0 -137 221 -258 465 -122 247 -194 414 -207 475
-5 27 -3 29 59 48 63 20 222 48 308 56 71 6 258 -4 342 -19z m-873 -222 c66
-189 255 -577 387 -796 48 -78 95 -155 104 -172 l18 -30 -167 -237 c-91 -131
-168 -238 -171 -238 -10 0 -130 216 -221 397 -86 170 -152 348 -184 493 -10
42 -19 143 -22 230 -5 146 -4 158 17 204 26 54 105 145 164 188 21 15 42 28
45 28 3 0 17 -30 30 -67z m1362 -2190 c199 -267 434 -575 661 -870 10 -13
-341 -688 -352 -676 -30 35 -175 223 -257 334 -208 281 -656 942 -657 969 -1
13 342 580 350 580 1 0 116 -152 255 -337z"/>
<path d="M1593 1803 c-12 -2 -33 -16 -47 -30 -35 -35 -35 -90 0 -132 21 -26
33 -31 69 -31 106 0 138 145 41 185 -20 8 -37 14 -38 14 -2 -1 -13 -4 -25 -6z"/>
</g>
</svg>
