<?xml version="1.0" standalone="no"?>
<!DOCTYPE svg PUBLIC "-//W3C//DTD SVG 20010904//EN"
 "http://www.w3.org/TR/2001/REC-SVG-20010904/DTD/svg10.dtd">
<svg version="1.0" xmlns="http://www.w3.org/2000/svg"
 width="512.000000pt" height="512.000000pt" viewBox="0 0 512.000000 512.000000"
 preserveAspectRatio="xMidYMid meet">

<g transform="translate(0.000000,512.000000) scale(0.100000,-0.100000)"
fill="rgb(40, 119, 236)" stroke="none">
<path d="M918 5106 c-87 -31 -119 -69 -190 -221 -60 -131 -68 -171 -41 -204
25 -30 76 -33 103 -5 10 10 40 69 66 129 74 169 106 190 216 140 30 -14 90
-35 134 -47 75 -21 96 -22 383 -20 332 2 429 -7 568 -53 315 -106 525 -347
595 -684 22 -101 29 -322 14 -413 l-7 -47 -32 14 c-18 7 -70 16 -117 20 -277
22 -502 149 -763 429 -83 89 -110 111 -174 143 -68 33 -87 38 -162 41 -99 4
-172 -17 -244 -72 -82 -63 -113 -116 -192 -330 -29 -78 -95 -166 -144 -193
-36 -19 -60 -23 -128 -23 -50 0 -97 -6 -118 -14 l-34 -14 -8 56 c-12 87 -6
307 11 402 39 210 40 221 30 238 -32 51 -103 53 -128 4 -21 -40 -54 -226 -67
-371 -13 -142 -2 -296 31 -421 15 -55 20 -109 20 -205 1 -152 8 -194 47 -249
33 -47 119 -96 170 -96 l33 0 0 -65 c0 -201 75 -323 273 -442 62 -36 131 -79
154 -95 l43 -29 0 -127 c0 -142 -9 -188 -44 -221 -13 -12 -162 -80 -331 -152
-321 -135 -352 -150 -423 -209 -88 -72 -205 -257 -257 -407 -22 -62 -12 -94
38 -114 51 -21 74 1 127 122 53 119 92 183 159 253 55 58 96 84 176 116 33 13
153 63 267 112 114 48 212 88 218 88 7 0 42 -18 78 -39 154 -90 280 -125 447
-125 94 0 139 5 205 23 79 21 230 87 291 127 26 17 29 16 240 -74 118 -49 231
-97 252 -106 l39 -16 -30 -37 c-17 -21 -85 -92 -151 -157 l-120 -120 -50 23
c-69 33 -146 27 -198 -15 -59 -49 -76 -78 -81 -142 -5 -72 10 -111 73 -180
l48 -54 -134 -134 -134 -134 -49 25 c-82 41 -157 28 -222 -40 -52 -54 -69
-114 -53 -182 11 -44 32 -68 227 -265 166 -167 226 -222 259 -234 163 -62 319
115 242 274 l-22 44 133 133 133 134 51 -45 c58 -52 88 -70 137 -79 126 -23
252 114 218 237 -6 23 -18 52 -26 65 -16 24 -14 26 650 691 730 731 688 682
673 791 -6 44 -4 49 30 81 20 19 42 47 50 62 28 53 13 138 -34 191 -15 17 3
37 276 310 317 318 319 321 267 372 -51 52 -54 50 -372 -267 -273 -273 -293
-291 -310 -276 -53 47 -138 62 -191 34 -15 -8 -42 -30 -61 -50 -33 -34 -35
-35 -96 -29 -85 8 -112 -7 -234 -132 -97 -98 -102 -105 -99 -141 4 -47 43 -80
82 -70 15 3 67 49 118 101 50 52 96 95 102 95 14 0 326 -312 326 -325 0 -6
-52 -62 -114 -125 l-115 -114 -50 47 c-56 52 -84 58 -125 26 -42 -33 -36 -73
21 -131 l48 -48 -125 -125 -125 -125 -165 165 -165 165 67 67 c36 38 71 78 77
90 25 48 -14 103 -73 103 -26 0 -62 -32 -246 -215 -118 -118 -220 -215 -226
-215 -6 0 -49 18 -95 39 -46 22 -180 78 -297 126 -118 47 -223 91 -233 98 -11
7 -28 30 -39 53 -17 34 -20 61 -20 185 l0 144 141 85 c145 87 204 139 252 220
36 61 57 150 57 237 l0 73 34 0 c71 0 151 53 189 124 18 35 22 64 28 211 4
108 12 190 22 224 55 188 41 491 -33 713 -109 325 -328 545 -650 652 -168 56
-271 66 -621 64 -334 -3 -318 -5 -484 66 -67 28 -130 32 -187 12z m689 -952
c36 -17 78 -54 144 -125 198 -215 423 -366 642 -431 l78 -23 -3 -355 c-4 -470
19 -427 -347 -649 -137 -83 -269 -158 -293 -167 -54 -20 -179 -23 -233 -5 -48
16 -492 280 -552 328 -25 20 -53 56 -70 91 l-28 57 -3 346 -3 346 55 27 c100
49 175 152 241 331 62 168 103 220 197 251 54 17 108 10 175 -22z m-817 -779
l0 -185 -24 0 c-13 0 -34 9 -47 19 -22 18 -24 27 -27 141 -2 67 -1 133 2 146
8 32 45 64 73 64 l23 0 0 -185z m1906 160 c25 -25 25 -27 22 -166 -3 -134 -4
-142 -27 -160 -13 -10 -34 -19 -47 -19 l-24 0 0 185 0 185 25 0 c14 0 37 -11
51 -25z m1491 -977 c40 -40 73 -77 73 -83 0 -6 -14 -24 -30 -40 l-31 -29 -81
82 -82 81 29 31 c16 16 33 30 39 30 6 0 43 -33 83 -72z m-2165 -351 c3 -112 6
-129 33 -182 17 -33 31 -63 33 -66 4 -9 -128 -66 -199 -85 -98 -26 -264 -24
-359 5 -74 23 -190 76 -190 87 0 3 9 18 20 34 30 42 50 135 50 232 l0 88 48
-24 c160 -81 365 -78 507 8 22 13 43 25 46 25 4 1 8 -54 11 -122z m1328 -822
l-125 -125 -45 45 c-36 35 -53 45 -80 45 -45 0 -70 -24 -70 -69 0 -28 9 -44
45 -81 l45 -45 -125 -125 -125 -125 -165 165 -165 165 302 302 303 303 165
-165 165 -165 -125 -125z m-747 -423 c152 -153 277 -283 277 -290 0 -16 -37
-52 -52 -52 -23 0 -568 553 -568 575 0 27 18 45 45 45 14 0 113 -92 298 -278z
m-175 -175 l82 -82 -135 -135 -135 -135 -85 85 -85 85 132 132 c73 73 135 133
138 133 3 0 42 -37 88 -83z m-386 -374 c139 -139 198 -204 198 -220 0 -25 -32
-47 -58 -39 -23 8 -402 388 -402 404 0 16 37 52 52 52 7 0 102 -89 210 -197z"/>
<path d="M1476 2919 c-34 -27 -35 -71 -1 -104 24 -25 25 -25 228 -25 192 0
206 1 231 21 34 27 36 77 3 107 -22 21 -32 22 -229 22 -193 0 -207 -1 -232
-21z"/>
</g>
</svg>
